<?xml version="1.0" standalone="no"?>
<!DOCTYPE svg PUBLIC "-//W3C//DTD SVG 20010904//EN"
 "http://www.w3.org/TR/2001/REC-SVG-20010904/DTD/svg10.dtd">
<svg version="1.0" xmlns="http://www.w3.org/2000/svg"
 width="270.382244pt" height="270.491788pt" viewBox="0 0 270.382244 270.491788"
 preserveAspectRatio="xMidYMid meet">
<metadata>
Created by potrace 1.12, written by Peter Selinger 2001-2015
</metadata>
<g transform="translate(-27.119782,280.646659) scale(0.100000,-0.100000)"
fill="#673ab7" stroke="none">
<path d="M900 2803 c-175 -30 -330 -117 -450 -250 -68 -77 -145 -233 -165
-338 -14 -69 -15 -180 -13 -795 l3 -715 24 -70 c70 -210 202 -366 386 -456
156 -76 120 -73 885 -77 434 -2 713 1 762 7 170 23 297 88 429 220 96 97 152
192 191 327 l23 79 0 720 c0 813 3 772 -80 940 -57 117 -117 191 -207 259 -85
62 -145 94 -243 127 l-70 24 -725 1 c-399 1 -736 0 -750 -3z m-195 -615 c33
-15 28 -6 270 -473 114 -220 257 -496 318 -613 120 -232 149 -269 232 -292
106 -30 205 6 270 99 27 39 30 50 30 124 l0 82 -158 304 c-87 167 -161 319
-164 336 -11 67 63 125 135 105 21 -5 46 -18 54 -27 8 -10 61 -108 118 -218
56 -110 126 -245 155 -300 72 -135 88 -196 83 -304 -3 -71 -10 -99 -36 -155
-39 -84 -79 -135 -140 -180 -203 -149 -496 -107 -642 91 -17 22 -107 189 -201
369 -94 181 -240 462 -325 625 -102 195 -154 307 -154 327 0 46 19 79 54 96
37 19 66 20 101 4z m1026 -4 c167 -49 237 -120 368 -372 52 -100 100 -183 108
-186 7 -3 19 1 26 8 7 8 73 132 146 276 117 229 137 263 166 277 67 32 155
-18 155 -88 0 -18 -55 -140 -139 -308 -122 -243 -146 -283 -187 -319 -72 -65
-169 -80 -257 -43 -69 30 -99 69 -198 260 -50 97 -107 193 -127 215 -129 136
-355 81 -403 -98 -23 -87 -15 -107 228 -571 40 -76 76 -153 79 -171 11 -60
-45 -124 -108 -124 -57 0 -81 31 -193 247 -212 407 -212 409 -225 482 -24 143
25 296 125 395 58 56 148 110 211 125 62 15 166 12 225 -5z"/>
</g>
</svg>
