<?xml version="1.0" standalone="no"?>
<!DOCTYPE svg PUBLIC "-//W3C//DTD SVG 20010904//EN"
 "http://www.w3.org/TR/2001/REC-SVG-20010904/DTD/svg10.dtd">
<svg version="1.0" xmlns="http://www.w3.org/2000/svg"
 width="667.664152pt" height="249.915550pt" viewBox="0 0 667.664152 249.915550"
 preserveAspectRatio="xMidYMid meet">
<metadata>
Created by potrace 1.12, written by Peter Selinger 2001-2015
</metadata>
<g transform="translate(-10.500000,272.915541) scale(0.100000,-0.100000)"
fill="#673ab7" stroke="none">
<path d="M630 2714 c-108 -23 -221 -86 -312 -172 -91 -87 -147 -175 -186 -289
l-27 -78 0 -690 0 -690 23 -75 c38 -122 78 -187 177 -286 103 -103 186 -152
311 -184 73 -19 113 -20 739 -20 745 0 739 -1 888 77 102 52 239 191 290 293
74 150 72 125 72 880 0 755 2 727 -73 880 -54 111 -187 243 -302 299 -145 71
-143 71 -880 70 -521 0 -668 -3 -720 -15z m-112 -569 c20 -17 116 -192 307
-562 333 -644 315 -613 365 -656 94 -80 215 -73 299 18 57 62 75 141 49 216
-6 19 -73 151 -148 294 -76 143 -141 275 -144 292 -20 91 103 154 166 86 32
-35 299 -549 323 -622 27 -84 18 -207 -22 -293 -148 -315 -576 -332 -752 -30
-21 37 -114 213 -207 392 -92 179 -216 420 -276 535 -60 116 -112 222 -115
237 -8 40 14 84 50 102 45 22 71 20 105 -9z m929 11 c156 -42 225 -109 342
-331 89 -171 102 -191 123 -182 7 3 71 118 141 255 109 212 133 252 158 262
66 28 139 -18 139 -86 0 -39 -222 -494 -271 -556 -83 -104 -258 -105 -348 -2
-17 19 -66 105 -111 193 -60 119 -91 168 -124 199 -92 84 -205 81 -297 -8 -53
-50 -74 -108 -67 -175 3 -26 55 -137 148 -315 150 -287 159 -315 126 -365 -9
-13 -33 -29 -54 -36 -32 -9 -44 -8 -71 6 -18 9 -39 28 -48 43 -97 177 -276
536 -289 580 -25 85 -15 202 24 286 86 183 290 282 479 232z"/>
<path d="M3213 2400 c-17 -10 -37 -28 -42 -39 -8 -13 -11 -257 -11 -765 l0
-746 29 -32 c25 -28 36 -33 75 -33 36 0 51 6 73 28 l28 27 3 317 c2 208 7 321
14 330 16 20 210 18 251 -3 43 -22 66 -43 84 -78 12 -23 45 -220 87 -518 6
-36 15 -54 42 -77 39 -35 59 -38 109 -17 64 27 67 54 30 331 -33 243 -55 338
-94 402 -17 27 -31 53 -31 56 0 3 20 28 43 56 110 129 148 269 116 423 -35
163 -177 302 -350 343 -45 10 -119 15 -244 15 -161 0 -183 -2 -212 -20z m433
-205 c131 -39 203 -179 162 -316 -16 -55 -73 -118 -132 -145 -44 -21 -67 -24
-163 -24 -88 0 -115 3 -127 16 -14 13 -16 48 -16 231 0 267 -7 253 130 253 56
0 117 -6 146 -15z"/>
<path d="M4581 2410 c-116 -25 -235 -110 -294 -211 -55 -94 -58 -125 -55 -626
l3 -458 37 -77 c66 -138 181 -225 333 -251 211 -36 434 125 475 344 6 29 10
126 10 216 0 246 -7 253 -230 253 -106 0 -148 -4 -170 -15 -30 -16 -60 -61
-60 -90 0 -29 30 -74 60 -90 18 -9 56 -15 100 -15 68 0 71 -1 81 -27 18 -45 6
-201 -19 -248 -55 -108 -174 -153 -277 -106 -53 24 -112 90 -122 138 -4 21 -8
232 -8 468 0 421 1 431 22 470 29 55 70 91 122 110 84 29 154 12 222 -55 45
-45 69 -102 69 -163 0 -16 13 -36 37 -57 31 -28 42 -31 76 -27 78 11 107 67
88 172 -36 196 -192 334 -395 349 -33 3 -81 1 -105 -4z"/>
<path d="M5373 2405 c-65 -28 -63 3 -63 -805 0 -802 -2 -773 60 -805 43 -22
477 -22 520 0 65 34 77 110 26 161 l-34 34 -164 0 c-147 0 -167 2 -181 18 -15
17 -17 78 -17 678 0 724 3 686 -60 719 -35 18 -46 18 -87 0z"/>
<path d="M5983 2400 c-17 -10 -37 -28 -42 -39 -7 -13 -11 -124 -11 -309 0
-256 2 -297 19 -351 38 -123 111 -208 223 -261 34 -16 65 -35 69 -42 5 -7 9
-129 9 -271 0 -285 3 -303 61 -333 40 -20 88 -12 120 22 24 25 24 27 29 304 3
153 7 280 10 283 3 2 34 19 70 36 73 37 137 94 181 163 55 85 60 123 61 447 0
276 -1 295 -19 320 -44 59 -108 63 -159 10 l-29 -30 -5 -297 -5 -297 -28 -47
c-59 -102 -192 -135 -293 -73 -37 23 -56 44 -76 84 l-28 55 0 273 c0 303 -4
329 -59 357 -39 21 -59 20 -98 -4z"/>
</g>
</svg>
